<?xml version="1.0" standalone="no"?><!DOCTYPE svg PUBLIC "-//W3C//DTD SVG 1.1//EN" "http://www.w3.org/Graphics/SVG/1.1/DTD/svg11.dtd"><svg t="1501160042467" class="icon" style="" viewBox="0 0 1024 1024" version="1.1" xmlns="http://www.w3.org/2000/svg" p-id="3290" xmlns:xlink="http://www.w3.org/1999/xlink" width="200" height="200"><defs><style type="text/css"></style></defs><path d="M949.275111 876.636744 715.560162 645.014456c44.304042-59.320037 70.53752-132.926452 70.53752-212.660424 0-196.435904-159.243841-355.686908-355.679745-355.686908-196.450231 0-355.693048 159.249981-355.693048 355.686908 0 196.449207 159.243841 355.713514 355.693048 355.713514 80.099293 0 154.011676-26.484188 213.468836-71.168899l232.577033 230.433206L949.275111 876.636744zM134.260843 432.354032c0-163.550936 132.591831-296.14993 296.157093-296.14993 163.550936 0 296.136627 132.598994 296.136627 296.14993 0 163.5581-132.585691 296.129464-296.136627 296.129464C266.853697 728.483496 134.260843 595.912132 134.260843 432.354032z" p-id="3291" fill="#ffffff"></path></svg>